<?xml version="1.0" encoding="UTF-8"?>
<svg id="Layer_2" data-name="Layer 2" xmlns="http://www.w3.org/2000/svg" xmlns:xlink="http://www.w3.org/1999/xlink" viewBox="0 0 153.3 134.86">
  <defs>
    <style>
      .cls-1 {
        fill: url(#linear-gradient);
      }
    </style>
    <linearGradient id="linear-gradient" x1="15.7" y1="144.73" x2="134.87" y2="25.56" gradientUnits="userSpaceOnUse">
      <stop offset="0" stop-color="#00cfcf"/>
      <stop offset=".5" stop-color="#6a5acd"/>
      <stop offset="1" stop-color="#d91b72"/>
    </linearGradient>
  </defs>
  <g id="Layer_1-2" data-name="Layer 1">
    <path class="cls-1" d="M1.2,130.15c1.05.74,2.49.65,3.44-.22.15-.13,11.6-10.16,37.95-15.43,8.07,8.17,18.83,15.41,33.2,20.21.28.09.57.15.87.15s.59-.06.87-.15c14.37-4.78,25.13-12.05,33.2-20.21,26.36,5.27,37.8,15.28,37.95,15.41.52.48,1.2.72,1.87.72.55,0,1.09-.17,1.57-.5,1.07-.74,1.48-2.11,1-3.31l-6.6-16.59,6.24-8.44c.85-1.15.68-2.73-.35-3.69-.5-.46-7.69-6.84-23.48-12.27,5.75-15.06,5.91-27.42,5.91-27.67V21.25c0-1.53-1.24-2.77-2.77-2.77-15.17,0-15.68-14.1-15.7-15.7,0-1.53-1.24-2.77-2.77-2.77H39.72c-1.51,0-2.75,1.24-2.77,2.77,0,1.61-.54,15.7-15.7,15.7-1.53,0-2.77,1.24-2.77,2.77v36.95c0,.26.15,12.62,5.91,27.67-15.8,5.43-22.96,11.81-23.48,12.27-1.05.96-1.2,2.55-.35,3.69l6.24,8.44L.2,126.87c-.48,1.2-.06,2.57,1,3.29ZM12.5,110.87c.35-.89.22-1.9-.35-2.68l-5.54-7.5c6.28-4.43,27.92-17.07,70.06-17.07s63.77,12.64,70.06,17.07l-5.54,7.5c-.57.78-.7,1.77-.35,2.68l3.82,9.64c-10.46-5.93-32-14.72-68.01-14.72s-57.53,8.78-67.99,14.72l3.82-9.64h.02ZM24.01,23.87c12.75-1.26,17.35-11.23,18.29-18.35h68.74c.94,7.11,5.54,17.07,18.29,18.35v34.31c0,1-.17,12.36-5.41,26.07-3.23-.94-6.76-1.85-10.6-2.64,3.84-6.5,5.95-13.99,5.95-21.71,0-1.22-.06-2.42-.17-3.62-.02-.37-.04-.72-.09-1.07-.2-1.79-.52-3.58-.94-5.32,0-.06-.02-.11-.04-.17-.26-1.09-.55-2.16-.91-3.21-.13-.39-.28-.76-.42-1.15-4.67-12.88-15.22-22.74-28.58-26.51-.2-.06-.41-.11-.63-.15-.55-.15-1.13-.28-1.7-.39-.3-.07-.59-.15-.89-.2-5.38-1.07-11.08-1.07-16.5,0-.28.06-.55.13-.83.18-.59.13-1.18.26-1.77.41-.22.04-.42.09-.74.18-6.71,1.9-12.91,5.47-17.92,10.31-2.55,2.46-4.8,5.21-6.69,8.22-1.77,2.83-3.21,5.87-4.29,9.09-.92,2.79-1.57,5.73-1.88,8.66-.04.37-.07.74-.07,1v.15h0c-.11,1.09-.17,2.24-.17,3.58,0,7.74,2.05,15.17,5.95,21.71-3.82.79-7.37,1.68-10.59,2.64-5.25-13.71-5.41-25.07-5.41-26.07V23.89l.02-.02ZM40.42,52.1c.28-1.31.63-2.59,1.05-3.84.94-2.81,2.18-5.47,3.71-7.91.72-1.16,1.51-2.27,2.35-3.34l2.48,11.18-9.59,3.9v.02ZM71.64,23.19c.39-.06.78-.09,1.16-.13.46-.06.92-.11,1.4-.13.3-.02.59-.02.91-.04,1.03-.04,2.09-.04,3.12,0,.3,0,.61,0,.91.04.46.04.92.09,1.37.13.39.04.79.07,1.18.13.11,0,.22.04.33.06l-5.36,7.08-5.36-7.08c.11,0,.22-.04.33-.06ZM101.2,32.13l-3.49,15.76-6.87,2.9-11.4-8.37v-6.6l8.5-11.23c4.97,1.59,9.46,4.16,13.26,7.52v.02ZM113.73,59.91c0,7.22-2.12,14.19-5.95,20.12l-13.78-2.07-4.73-7.56,3.57-14.43,7.3-3.09,13.54,5.51c.02.5.06,1.02.06,1.51ZM69.22,68.12l-3.23-13.02,10.66-7.81,10.66,7.81-3.23,13.02h-14.89.04ZM112.91,52.1l-9.59-3.9,2.48-11.18c.85,1.07,1.63,2.18,2.35,3.34,1.53,2.46,2.79,5.1,3.71,7.91.42,1.26.76,2.53,1.05,3.84v-.02ZM65.4,24.61l8.5,11.23v6.6l-11.4,8.37-6.87-2.9-3.49-15.72c3.81-3.38,8.33-5.97,13.26-7.56v-.02ZM39.64,58.4l13.56-5.51,7.3,3.09,3.57,14.43-4.73,7.54-13.76,2.07c-3.9-5.99-5.97-12.9-5.97-20.12,0-.54,0-1.03.04-1.51v.02ZM68.59,73.66h16.17l2.97,4.73c-3.53-.18-7.21-.3-11.05-.3s-7.52.11-11.05.3l2.97-4.73h-.02ZM76.68,111.35c10.38,0,19.49.78,27.47,2-7.02,6.3-15.98,11.86-27.47,15.81-11.47-3.95-20.45-9.51-27.47-15.81,7.96-1.22,17.09-2,27.47-2Z"/>
  </g>
</svg>