<svg xmlns="http://www.w3.org/2000/svg" viewBox="0 154.81 1053.26 195.01" role="img" aria-label="SPORTFIVE"><title>SPORTFIVE</title><path fill="#1a1a1a" d="M115.58 256.14c.09 6.29-1.24 12.51-3.91 18.19a39.57 39.57 0 0 1-10.89 13.78 50.748 50.748 0 0 1-16.37 8.66 66.692 66.692 0 0 1-20.56 3.04c-7.6.09-15.16-.96-22.45-3.13a64.242 64.242 0 0 1-17.88-8.63 58.075 58.075 0 0 1-13.43-13.03 62.129 62.129 0 0 1-8.63-16.12l-1.2-3.34 34.17-8.64.96 2.76a31.294 31.294 0 0 0 10.34 14.73 28.769 28.769 0 0 0 18.15 5.5c5.87 0 10.16-1.25 12.72-3.7 2.43-2.17 3.82-5.3 3.79-8.58a10.57 10.57 0 0 0-3.65-8.24c-2.64-2.44-7.44-4.33-14.19-5.58l-5.89-1.12c-7.21-1.3-14.31-3.15-21.25-5.52a58.972 58.972 0 0 1-16.04-8.36c-4.32-3.2-7.83-7.39-10.23-12.24a37.765 37.765 0 0 1-3.5-16.62 39.06 39.06 0 0 1 3.63-17.07c2.39-4.99 5.87-9.36 10.18-12.78 4.57-3.55 9.78-6.17 15.33-7.73 6.15-1.74 12.52-2.6 18.91-2.56 6.77-.07 13.52.82 20.05 2.66a57.16 57.16 0 0 1 15.95 7.29c4.47 2.98 8.47 6.63 11.85 10.84 3.22 4 5.86 8.44 7.85 13.19l1.42 3.44-34.45 8.68-1.01-2.66a20.526 20.526 0 0 0-7.59-9.8 23.97 23.97 0 0 0-14.11-3.8c-4.64 0-8.05.89-10.16 2.56a7.74 7.74 0 0 0-2.84 6.35c.1 2.45 1.36 4.71 3.37 6.08 2.72 2.07 7.59 3.75 14.44 5.02l5.91 1.12c16.1 3.06 28.69 7.98 37.39 14.66 9.14 7.04 13.76 17.34 13.82 30.7zm186.57-67.11c-4.07 1.81-7.7 4.49-10.63 7.85a36.395 36.395 0 0 0-6.84 12.2 51.951 51.951 0 0 0 0 31.5 36.21 36.21 0 0 0 6.84 12.18c2.93 3.36 6.56 6.04 10.64 7.85a36.52 36.52 0 0 0 28 0 30.31 30.31 0 0 0 10.64-7.85c3.04-3.58 5.37-7.72 6.84-12.18a51.951 51.951 0 0 0 0-31.5 36.62 36.62 0 0 0-6.86-12.2 30.306 30.306 0 0 0-10.63-7.85 36.52 36.52 0 0 0-28 0zm78.84 7.5a77.467 77.467 0 0 1 0 56.68 68.138 68.138 0 0 1-14.79 22.12 66.052 66.052 0 0 1-22.26 14.42 78.696 78.696 0 0 1-55.54 0 66.052 66.052 0 0 1-22.26-14.42 67.613 67.613 0 0 1-14.79-22.12 77.266 77.266 0 0 1 0-56.68 67.875 67.875 0 0 1 14.79-22.22 66.026 66.026 0 0 1 22.26-14.41 78.37 78.37 0 0 1 55.54 0 66.222 66.222 0 0 1 22.26 14.41 67.875 67.875 0 0 1 14.79 22.22zm88.17 5.53c.08-2.92-1.05-5.74-3.1-7.78-2.07-2.08-5.43-3.15-10.04-3.15h-24.11v21.82h24.11c4.61 0 7.97-1.05 10.04-3.15 2.05-2.04 3.17-4.85 3.1-7.77v.03zm14.43 34.24 28.12 58.52H472.7l-23.78-50.55h-17v50.55h-35.53v-135h59.64c6.87-.07 13.72.95 20.28 3.02a44.838 44.838 0 0 1 15.41 8.33c4.17 3.54 7.48 8 9.71 13.03a41.029 41.029 0 0 1 3.28 16.55c.27 8.22-2.18 16.3-6.97 22.93a47.831 47.831 0 0 1-14.15 12.62zm33.14-45.18h39.53v103.7h36.08v-103.7h39.71v-31.3H516.73v31.3zm130.37 103.7h36v-54.27h55.4v-31.3h-55.4v-18.13h64.29v-31.3H647.1v135zm110.32 0h35.1v-135h-35.1v135zm83.36-135h-38.24l43.86 135h42.66l43.5-133.9.36-1.1H894.7l-26.96 94.65-26.96-94.65zm143.9 103.72v-24.28h58.76v-31.3h-58.76v-16.83h64.81v-31.3H947.96v135h105.3v-31.28h-68.58zm-790.15-69.22c-2.83-2.31-6.47-3.45-10.15-3.2H162.8v23.15h21.56c4.49 0 7.82-1.13 10.14-3.33 2.29-2.19 3.53-5.21 3.43-8.33.14-3.11-1.1-6.13-3.4-8.29zm37.97-8.75c2.31 5.4 3.48 11.19 3.43 17.03.04 5.87-1.12 11.69-3.43 17.12-2.29 5.32-5.81 10.04-10.29 13.82a48.337 48.337 0 0 1-16.31 8.88 68.213 68.213 0 0 1-21.52 3.15H162.8v49.25h-37.18V159.83h58.76c7.3-.09 14.57.97 21.52 3.15a48.431 48.431 0 0 1 16.31 8.88c4.46 3.75 7.98 8.44 10.29 13.71z"/><path fill="#e1251b" d="M817.59 314.82h105.3v35h-105.3z"/></svg>
