<?xml version="1.0" encoding="UTF-8"?><svg id="Layer_2" xmlns="http://www.w3.org/2000/svg" viewBox="0 0 2471.81 251.78"><defs><style>.cls-1{fill:#0e1a46;}</style></defs><g id="Layer_1-2"><path class="cls-1" d="m2.86,246.77v-82.09h43.07c.63,15.01,6.04,26.06,16.2,33.16,10.16,7.1,34.93,10.65,47.96,10.65,10.16,0,18.74-2.57,25.74-7.71,6.99-5.14,10.48-11.17,10.48-18.1,0-7.39-3.42-13.59-10.24-18.62-6.83-5.02-19.32-10.74-37.45-17.17-38.34-13.41-64.37-25.26-78.07-35.56C6.85,101.06,0,87.18,0,69.72c0-21.05,9.06-37.36,27.16-48.92C45.28,9.23,65.84,3.45,88.88,3.45c26.37,0,62.11,7.48,76.56,22.43V5.87h40.68v73.26h-44.25c-1.75-11.31-7.11-20.06-16.08-26.24-8.98-6.18-31.17-9.27-43.09-9.27-9.22,0-17,1.79-23.35,5.37-6.35,3.58-9.53,8.26-9.53,14.03,0,4.97,2.62,9.67,7.86,14.12,5.24,4.44,20.59,10.74,46.03,18.9,24.49,7.93,43.28,15.1,56.37,21.51,13.09,6.41,23.44,14.73,31.05,24.96,7.61,10.23,11.42,22.04,11.42,35.45,0,23.81-9.53,41.72-28.59,53.73-19.06,12.02-41.62,18.03-67.67,18.03-29.07,0-66.7-7.82-82.43-23.47v20.52H2.86Z"/><path class="cls-1" d="m368.1,2.06c41.56,0,74.27,12.01,98.11,36.02,23.84,24.01,35.76,53.28,35.76,87.8s-11.95,63.94-35.85,87.89c-23.9,23.96-56.57,35.94-98.02,35.94s-76.14-12.33-99.23-36.97c-23.09-24.65-34.64-53.6-34.64-86.86s11.86-63.64,35.59-87.71c23.72-24.07,56.48-36.11,98.28-36.11Zm0,43.99c-18.47,0-34.15,6.93-47.02,20.78-12.88,13.85-19.31,34.18-19.31,60.96,0,23.66,6.35,42.6,19.05,56.8,12.7,14.2,28.46,21.3,47.28,21.3s34.17-6.96,47.11-20.87c12.93-13.91,19.4-33.97,19.4-60.18,0-23.44-6.18-42.43-18.53-56.98-12.36-14.55-28.34-21.82-47.97-21.82Z"/><path class="cls-1" d="m720.45,5.87h40.7v84.86h-40.7c-11.55-30.48-31.58-45.72-60.09-45.72-23.55,0-41.36,8.02-53.43,24.07-12.07,16.05-18.1,35.27-18.1,57.67s6.38,42.4,19.14,56.89c12.76,14.49,29.01,21.74,48.75,21.74,16.16,0,30.31-5.48,42.43-16.45,12.12-10.97,20.32-26.2,24.59-45.72l47.45,22.6c-18.01,55.94-57.67,83.91-118.98,83.91-43.29,0-75.94-11.66-97.94-34.98s-32.99-52.82-32.99-88.5c0-25.4,5.71-47.62,17.14-66.68,11.43-19.05,26.81-33.4,46.15-43.04,19.34-9.64,40.55-14.46,63.65-14.46,28.75,0,52.82,7.51,72.22,22.51V5.87Z"/><path class="cls-1" d="m983.77,5.87h40.7v84.86h-40.7c-11.55-30.48-31.58-45.72-60.09-45.72-23.55,0-41.36,8.02-53.43,24.07-12.07,16.05-18.1,35.27-18.1,57.67s6.38,42.4,19.14,56.89c12.76,14.49,29.01,21.74,48.75,21.74,16.16,0,30.31-5.48,42.43-16.45,12.12-10.97,20.32-26.2,24.59-45.72l47.45,22.6c-18.01,55.94-57.67,83.91-118.98,83.91-43.29,0-75.94-11.66-97.94-34.98-21.99-23.32-32.99-52.82-32.99-88.5,0-25.4,5.71-47.62,17.14-66.68,11.43-19.05,26.81-33.4,46.15-43.04,19.34-9.64,40.55-14.46,63.65-14.46,28.75,0,52.82,7.51,72.22,22.51V5.87Z"/><path class="cls-1" d="m1046.02,246.77v-40.7h28.92V46.57h-28.92V5.87h212.32v76.37h-46.07v-35.68h-74.64v55.6h60.27v40.7h-60.27v63.21h74.64v-36.03h46.07v76.72h-212.32Z"/><path class="cls-1" d="m1532.19,206.07v40.7h-73.39l-54.39-105.47h-27.56v64.77h30.13v40.7h-125.91v-40.7h33.08V46.57h-33.08V5.87h145.31c27.36,0,47.07,6.9,59.14,20.7,12.06,13.8,18.1,29.41,18.1,46.85,0,27.36-13.91,47.34-41.74,59.92l39.14,72.74h31.18Zm-155.35-103.22h21.48c26.55,0,39.83-9.47,39.83-28.41,0-9.35-3.03-16.33-9.09-20.96-6.06-4.62-14.4-6.93-25.02-6.93h-27.19v56.29Z"/><path class="cls-1" d="m1552.81,246.77v-40.7h28.92V46.57h-28.92V5.87h212.32v76.37h-46.07v-35.68h-74.64v55.6h60.27v40.7h-60.27v63.21h74.64v-36.03h46.07v76.72h-212.32Z"/><path class="cls-1" d="m1782.35,246.77v-40.7h35.5l58.61-82.82-58.61-76.69h-33.08V5.87h126.08v40.66h-23.09l33.79,42.44,30.65-42.44h-21.78V5.87h108.59v40.7h-33.42l-57.12,79.1,63.01,80.41h34.64v40.7h-129.54v-40.67h24.1l-36.37-47.53-34.48,47.53h24.76v40.67h-112.23Z"/><path class="cls-1" d="m2313.81,86.29c-1.93,5.03-4.04,10-5.7,15.12-3.76,11.55-7.29,23.19-10.94,34.78-1.74,5.51-2.08,3.84,2.43,7.27,14.48,10.99,29.03,21.88,43.5,32.87,1.58,1.2,2.74,1.37,4.39.08,4.96-3.84,10.05-7.5,15.08-11.25,10.19-7.6,20.37-15.21,30.53-22.84.66-.49,1.16-1.18,1.65-1.68-.26-.7-.43-1.07-.54-1.46-3.55-12.38-6.98-24.8-10.67-37.14-1.63-5.47-3.74-10.79-5.7-16.16-.66-1.81-1.74-3.34-3.86-3.6-2.49-.29-4.98-.61-7.48-.7-7.42-.28-14.86-.69-22.28-.6-8.31.1-16.61.73-24.91,1.04-2.96.11-4.53,1.76-5.5,4.27Z"/><path class="cls-1" d="m2254.08,124.99c-6.64-7.35-13.68-14.34-20.53-21.51-.89-.94-1.79-1.29-3-.7-2.9,1.4-5.84,2.71-8.68,4.22-.72.38-1.51,1.35-1.59,2.12-.54,5.62-1.26,11.26-1.26,16.9-.02,14.3,2.31,28.25,6.97,41.81,5.52,16.06,13.88,30.45,25.24,43.07.66.73,2.08,1.22,3.08,1.13,2.8-.25,5.56-1.07,8.36-1.25,2.39-.15,2.84-1.47,3.15-3.4,1.01-6.37,2.07-12.74,3.22-19.09,1.99-10.97,3.84-21.95,4.1-33.13.04-.81.03-1.62.13-2.42.36-3.06-.55-5.62-2.57-7.98-5.59-6.54-10.86-13.37-16.62-19.75Z"/><path class="cls-1" d="m2471.13,111.67c-.18-1.62-.88-2.51-2.19-3.14-2.24-1.08-4.52-2.08-6.75-3.18-3.03-1.49-3-1.5-5.42.88-4.26,4.17-8.68,8.19-12.81,12.49-7.96,8.28-15.77,16.7-23.63,25.07-2.83,3.01-4.48,6.42-3.77,10.72.21,1.26.03,2.58.03,3.88-.02,0-.04,0-.06,0,.2,3.47.25,6.95.62,10.4.78,7.3,1.68,14.59,2.62,21.88.79,6.08,1.77,12.14,2.56,18.22.2,1.57.91,2.13,2.41,2.38,2.78.46,5.52,1.17,8.28,1.76,1.31.28,2.42.26,3.43-.99,3.93-4.89,8.28-9.47,11.94-14.55,11.89-16.53,19.01-35.07,22.04-55.14,1.54-10.16,1.84-20.41.71-30.68Z"/><path class="cls-1" d="m2448.81,77.98c.43-.24,1.49-.46,1.88-1.1,1.7-2.73,3.32-5.52,4.71-8.42.43-.9.39-2.38-.07-3.28-5.06-9.87-11.53-18.79-19.19-26.79-17.99-18.82-39.58-31.32-65.08-37-1.78-.4-2.96.03-4.1,1.21-1.85,1.91-3.59,3.96-5.6,5.68-1.5,1.28-1.47,2.42-.67,3.96,1.74,3.36,3.37,6.77,5.12,10.13,6.01,11.49,12,22.99,18.11,34.44,2.7,5.06,6.07,9.21,12.36,10.36,6.47,1.19,12.77,3.33,19.21,4.72,6.3,1.35,12.7,2.25,19.04,3.39,4.6.83,9.18,1.74,14.28,2.71Z"/><path class="cls-1" d="m2302.45,62.63c11.77-15.67,19.91-33.43,29.23-50.5.32-.58,0-1.88-.48-2.46-1.97-2.34-4.05-4.62-6.26-6.73-.69-.65-2-1.11-2.93-.97-9.39,1.31-18.38,4.16-27.06,7.84-11.91,5.06-22.83,11.8-32.71,20.19-10.9,9.25-19.96,20.04-27.28,32.32-.87,1.46-.98,2.71-.14,4.19,1.39,2.46,2.59,5.01,4.01,7.45.47.81,1.37,1.37,2.07,2.04.14-.14.28-.28.43-.42.4-.03.81-.04,1.21-.1,6.95-1,13.89-1.99,20.84-3,5.03-.73,10.09-1.3,15.07-2.28,5.92-1.17,11.8-2.59,17.64-4.14,2.31-.61,4.64-1.13,6.37-3.44Z"/><path class="cls-1" d="m2398.57,226.27c-6.1-3.09-12.15-6.31-18.17-9.56-10.4-5.6-21-10.8-32.13-14.82-1.39-.5-3.09-.98-4.43-.63-4.03,1.08-8.03,2.37-11.89,3.94-6.25,2.54-12.44,5.26-18.56,8.11-8.09,3.77-16.1,7.7-24.09,11.67-.64.32-1.27,1.48-1.22,2.2.22,3.05.77,6.08,1.04,9.13.14,1.57.79,2.55,2.23,3.09,6.7,2.5,13.31,5.26,20.11,7.47,11.22,3.65,22.86,4.83,34.62,4.89,9.32.04,18.53-.91,27.64-2.93,8.12-1.8,16.02-4.25,23.55-7.8.84-.4,1.74-1.43,1.94-2.32.64-2.83.81-5.76,1.47-8.58.49-2.12-.37-2.99-2.11-3.87Z"/><path class="cls-1" d="m2173.25,213.8c-3.68-2.06-7.01-3.85-10.26-5.76-12.04-7.09-23.25-15.32-33.48-24.85-1.17-1.09-2.07-1.18-3.25,0-11.32,11.33-22.64,22.67-34.06,33.9-1.61,1.58-1.41,2.34.18,3.69,13.37,11.34,28.37,19.65,45.14,24.84,2.64.82,4.06.44,5.95-1.51,9.27-9.55,18.73-18.91,28.12-28.35.55-.55,1-1.18,1.66-1.97Z"/><path class="cls-1" d="m2117.69,172.47c1.08-1.07,1.2-1.77.08-2.98-9.21-9.99-17.33-20.81-24.28-32.49-2.17-3.66-4.2-7.41-6.29-11.11l-.95-.59c-.71.97-1.31,2.05-2.15,2.89-9,9.04-17.98,18.09-27.1,27-2.05,2-2.48,3.71-1.6,6.55,5.17,16.65,13.4,31.53,24.72,44.77,1.32,1.55,2.04,1.48,3.38.14,11.35-11.43,22.75-22.81,34.17-34.17Z"/><path class="cls-1" d="m2181.47,202.59c1.63.81,2.7.64,4.01-.71,5.69-5.84,11.48-11.58,17.27-17.32,3.32-3.28,6.71-6.49,10.15-9.81-.79-.9-1.23-1.47-1.73-1.97-11.91-11.9-23.86-23.76-35.72-35.71-1.31-1.31-1.96-1.3-3.24,0-6.6,6.72-13.33,13.32-19.98,19.99-4.88,4.89-9.71,9.84-14.86,15.06.95.85,1.62,1.43,2.28,2.02,12.65,11.38,26.56,20.89,41.82,28.44Z"/><path class="cls-1" d="m2210.39,77.85c-13.18-12.17-27.91-22.07-43.93-30.09-1.23-.62-1.87-.21-2.7.63-8.77,8.82-17.56,17.63-26.4,26.37-1.25,1.23-1.14,1.95.04,3.13,11.91,11.84,23.8,23.72,35.63,35.65,1.42,1.43,2.25,1.43,3.66-.02,6.15-6.28,12.38-12.47,18.64-18.63,5.33-5.25,10.74-10.42,16.25-15.76-.76-.83-.96-1.07-1.19-1.29Z"/><path class="cls-1" d="m2126.2,86.16c-.67.61-1.28,1.11-1.84,1.66-8.47,8.43-16.9,16.9-25.42,25.29-1.38,1.36-1.68,2.48-.7,4.19,3,5.24,5.72,10.65,8.85,15.82,5.78,9.54,12.59,18.34,20.09,26.61.85.94,1.48,1.85,2.86.45,11.23-11.34,22.49-22.64,33.82-33.87,1.28-1.27.86-1.95-.11-2.92-12.05-12.02-24.09-24.05-36.15-36.07-.38-.38-.84-.68-1.42-1.14Z"/><path class="cls-1" d="m2174.92,36.81c16.25,8.4,30.46,18.32,43.83,30.38,7.76-16.26,17.9-30.16,30.62-42.28-.64-.54-.97-.9-1.37-1.14-6.24-3.8-12.28-8.02-18.81-11.24-6.24-3.08-13.01-5.1-19.53-7.64-1.46-.57-2.4-.07-3.41.96-6.97,7.08-13.94,14.14-20.98,21.15-3.24,3.22-6.63,6.3-10.35,9.82Z"/><path class="cls-1" d="m2202.64,225.43c-4.65-1.22-9.12-3.15-13.66-4.77-1.45-.52-2.53-.49-3.81.84-6.99,7.23-14.16,14.29-21.25,21.42-2.12,2.13-4.21,4.31-6.4,6.55,15.72,6.7,71.71-5.28,80.75-16.94-3.98-.57-8.08-.94-12.09-1.76-7.88-1.62-15.76-3.3-23.54-5.34Z"/><path class="cls-1" d="m2079.31,113.51c1.25-1.23,1.41-2.18.79-3.75-5.47-13.78-9.21-28.01-10.94-42.75-.26-2.21-.5-4.42-.82-7.28-10,15.96-15.5,32.8-17.67,50.75-1.22,10.16-1.25,20.35.31,30.91.88-.68,1.41-1.02,1.85-1.45,8.82-8.82,17.6-17.68,26.48-26.44Z"/><path class="cls-1" d="m2113.94,18.81c5.51.81,11.13,1.17,16.48,2.56,9.88,2.58,19.61,5.69,29.35,8.77,1.71.54,2.67.24,3.79-.9,7.15-7.19,14.35-14.34,21.51-21.52,2.11-2.12,4.17-4.29,6.57-6.76-29.35-3.32-56.25,1.82-81.05,16.74.02.24.04.48.06.72,1.09.13,2.19.22,3.28.38Z"/><path class="cls-1" d="m2124.94,65.41c1.02,1.02,1.63.81,2.56-.14,5.2-5.27,10.48-10.48,15.72-15.71,2.59-2.59,5.16-5.21,8.08-8.16-19.32-7.14-38.75-10.39-59.42-9.5.51.75.65,1.05.87,1.27,10.73,10.75,21.47,21.48,32.18,32.24Z"/><path class="cls-1" d="m2115.33,77.5c1.06-1.07.73-1.81-.27-2.79-8.3-8.22-16.54-16.5-24.8-24.77-2.65-2.65-5.3-5.29-8.28-8.26-1.14,20.81,2.27,40.31,9.48,59.98,8.27-8.37,16.06-16.27,23.86-24.16Z"/><path class="cls-1" d="m2197.71,209.53c13.54,5.08,27.51,8.05,42.68,9.18-8.63-9.66-15.59-19.71-21.2-30.71-7.24,7.26-14.26,14.29-21.48,21.53Z"/><path class="cls-1" d="m2205.43,103.94c-6.9,6.87-13.79,13.75-20.71,20.6-1.08,1.06-.91,1.79.11,2.79,4.55,4.44,9.04,8.94,13.52,13.45,2.53,2.55,4.98,5.17,7.46,7.75.25-.17.51-.34.76-.52-2.35-15.01-2.17-29.99.33-45.02-.67.26-1.11.57-1.48.95Z"/></g></svg>