<?xml version="1.0" encoding="UTF-8"?><svg id="Layer_2" xmlns="http://www.w3.org/2000/svg" viewBox="0 0 2120.14 1034.88"><defs><style>.cls-1{fill:#fff;}</style></defs><g id="Layer_1-2"><path class="cls-1" d="m1198.08,224.63c-5.03,13.09-10.51,26.04-14.85,39.36-9.79,30.08-18.96,60.36-28.48,90.53-4.52,14.33-5.42,10,6.34,18.92,37.69,28.6,75.56,56.96,113.24,85.57,4.11,3.12,7.13,3.56,11.44.22,12.9-10,26.16-19.53,39.25-29.29,26.52-19.79,53.02-39.59,79.48-59.45,1.71-1.28,3.03-3.07,4.3-4.38-.69-1.83-1.13-2.79-1.42-3.8-9.23-32.24-18.18-64.55-27.78-96.68-4.25-14.23-9.74-28.09-14.84-42.06-1.72-4.7-4.53-8.71-10.06-9.36-6.47-.77-12.96-1.58-19.47-1.82-19.33-.72-38.67-1.8-58-1.57-21.63.25-43.23,1.9-64.85,2.69-7.69.28-11.8,4.58-14.32,11.12Z"/><path class="cls-1" d="m1042.59,325.37c-17.28-19.14-35.62-37.33-53.43-56-2.33-2.44-4.67-3.35-7.82-1.82-7.54,3.65-15.2,7.05-22.59,10.99-1.88,1-3.94,3.52-4.13,5.52-1.41,14.64-3.27,29.32-3.29,43.99-.06,37.23,6.01,73.55,18.14,108.84,14.37,41.81,36.12,79.27,65.69,112.12,1.72,1.91,5.41,3.17,8.03,2.94,7.29-.64,14.47-2.79,21.76-3.26,6.22-.4,7.4-3.84,8.2-8.86,2.63-16.59,5.39-33.17,8.39-49.7,5.17-28.55,9.99-57.13,10.66-86.24.1-2.1.08-4.22.33-6.3.94-7.97-1.42-14.62-6.69-20.78-14.56-17.03-28.26-34.81-43.26-51.42Z"/><path class="cls-1" d="m1607.61,290.69c-.47-4.22-2.29-6.54-5.69-8.18-5.83-2.8-11.76-5.42-17.56-8.29-7.89-3.89-7.8-3.9-14.12,2.28-11.1,10.86-22.59,21.33-33.34,32.51-20.72,21.55-41.04,43.48-61.52,65.26-7.38,7.85-11.66,16.72-9.81,27.9.54,3.28.08,6.72.08,10.09-.06,0-.11,0-.17,0,.51,9.03.64,18.1,1.61,27.08,2.03,19.01,4.36,37.99,6.83,56.95,2.06,15.84,4.6,31.61,6.66,47.44.53,4.1,2.36,5.55,6.28,6.2,7.24,1.19,14.36,3.06,21.54,4.59,3.4.73,6.3.68,8.93-2.58,10.24-12.72,21.56-24.65,31.07-37.87,30.96-43.03,49.47-91.29,57.37-143.55,4-26.46,4.8-53.13,1.84-79.86Z"/><path class="cls-1" d="m1549.51,202.98c1.12-.62,3.87-1.2,4.9-2.85,4.42-7.11,8.65-14.38,12.25-21.92,1.11-2.33,1.01-6.21-.18-8.53-13.18-25.71-30.03-48.9-49.96-69.75-46.83-48.98-103.05-81.54-169.41-96.31-4.62-1.03-7.7.07-10.67,3.14-4.82,4.97-9.34,10.3-14.58,14.78-3.89,3.33-3.83,6.3-1.75,10.31,4.54,8.74,8.78,17.63,13.34,26.36,15.65,29.92,31.25,59.86,47.14,89.65,7.03,13.17,15.8,23.96,32.17,26.97,16.85,3.1,33.23,8.68,50.01,12.28,16.4,3.52,33.06,5.85,49.58,8.83,11.96,2.16,23.89,4.52,37.16,7.05Z"/><path class="cls-1" d="m1168.51,163.03c30.64-40.79,51.83-87.01,76.08-131.46.82-1.51.01-4.9-1.25-6.39-5.14-6.1-10.53-12.02-16.3-17.52-1.78-1.7-5.2-2.88-7.62-2.54-24.44,3.42-47.84,10.82-70.44,20.42-31,13.17-59.43,30.73-85.16,52.55-28.37,24.07-51.95,52.18-71.01,84.14-2.27,3.81-2.55,7.06-.38,10.91,3.61,6.39,6.74,13.05,10.44,19.39,1.22,2.1,3.55,3.56,5.38,5.31.37-.36.74-.72,1.11-1.08,1.05-.08,2.11-.1,3.14-.25,18.08-2.59,36.17-5.18,54.25-7.81,13.09-1.9,26.28-3.38,39.24-5.94,15.42-3.05,30.73-6.75,45.92-10.79,6.01-1.6,12.07-2.95,16.58-8.95Z"/><path class="cls-1" d="m1418.72,589.02c-15.89-8.06-31.62-16.43-47.31-24.87-27.09-14.59-54.65-28.13-83.63-38.58-3.62-1.3-8.05-2.55-11.52-1.63-10.49,2.8-20.9,6.17-30.96,10.26-16.28,6.62-32.38,13.7-48.31,21.12-21.05,9.81-41.91,20.05-62.71,30.38-1.66.82-3.32,3.85-3.18,5.72.57,7.95,2,15.83,2.72,23.77.37,4.07,2.05,6.64,5.82,8.04,17.44,6.51,34.66,13.7,52.34,19.44,29.22,9.49,59.5,12.56,90.12,12.74,24.27.1,48.25-2.38,71.94-7.64,21.13-4.69,41.71-11.07,61.3-20.3,2.2-1.04,4.52-3.72,5.05-6.04,1.67-7.35,2.12-14.99,3.83-22.33,1.28-5.52-.95-7.77-5.5-10.08Z"/><path class="cls-1" d="m832.17,556.56c-9.59-5.37-18.25-10.02-26.71-15-31.35-18.46-60.51-39.89-87.16-64.68-3.05-2.84-5.4-3.07-8.47,0-29.47,29.5-58.93,59-88.65,88.25-4.19,4.12-3.67,6.1.47,9.61,34.81,29.53,73.84,51.15,117.51,64.66,6.88,2.13,10.57,1.14,15.48-3.92,24.13-24.86,48.77-49.23,73.2-73.8,1.42-1.43,2.61-3.08,4.33-5.12Z"/><path class="cls-1" d="m687.55,448.97c2.8-2.79,3.12-4.6.22-7.75-23.96-26.01-45.12-54.16-63.2-84.58-5.66-9.52-10.94-19.28-16.39-28.93l-2.47-1.54c-1.85,2.52-3.4,5.33-5.59,7.52-23.42,23.52-46.81,47.08-70.53,70.29-5.32,5.21-6.46,9.65-4.16,17.04,13.46,43.33,34.87,82.09,64.36,116.53,3.45,4.03,5.32,3.86,8.81.35,29.55-29.74,59.23-59.37,88.95-88.94Z"/><path class="cls-1" d="m853.59,527.38c4.25,2.1,7.02,1.67,10.44-1.84,14.8-15.21,29.88-30.15,44.96-45.09,8.63-8.54,17.46-16.88,26.42-25.53-2.05-2.35-3.19-3.82-4.5-5.12-31.01-30.97-62.1-61.86-92.98-92.96-3.4-3.42-5.09-3.39-8.44,0-17.19,17.49-34.7,34.67-52.02,52.04-12.7,12.74-25.28,25.61-38.69,39.21,2.49,2.2,4.22,3.72,5.93,5.26,32.93,29.62,69.14,54.39,108.87,74.03Z"/><path class="cls-1" d="m928.86,202.66c-34.3-31.68-72.65-57.44-114.35-78.33-3.2-1.61-4.87-.54-7.03,1.64-22.84,22.96-45.7,45.88-68.73,68.65-3.25,3.21-2.98,5.07.11,8.14,31.02,30.83,61.95,61.75,92.74,92.81,3.69,3.72,5.85,3.72,9.54-.04,16-16.34,32.24-32.45,48.53-48.5,13.88-13.67,27.96-27.13,42.29-41.01-1.98-2.15-2.5-2.8-3.1-3.35Z"/><path class="cls-1" d="m709.7,224.29c-1.76,1.58-3.34,2.88-4.79,4.33-22.04,21.96-44,44-66.17,65.83-3.58,3.53-4.37,6.45-1.82,10.89,7.82,13.65,14.9,27.73,23.05,41.17,15.06,24.85,32.79,47.75,52.31,69.26,2.21,2.44,3.84,4.8,7.44,1.17,29.23-29.51,58.55-58.94,88.05-88.18,3.34-3.31,2.23-5.09-.29-7.6-31.37-31.29-62.72-62.61-94.09-93.9-.99-.99-2.19-1.78-3.69-2.98Z"/><path class="cls-1" d="m836.53,95.83c42.3,21.87,79.29,47.7,114.1,79.08,20.19-42.34,46.6-78.51,79.71-110.06-1.67-1.4-2.53-2.34-3.57-2.97-16.25-9.89-31.97-20.87-48.97-29.26-16.25-8.02-33.87-13.28-50.83-19.88-3.79-1.48-6.26-.17-8.88,2.49-18.13,18.42-36.29,36.82-54.61,55.05-8.44,8.39-17.26,16.4-26.95,25.56Z"/><path class="cls-1" d="m908.68,586.84c-12.11-3.17-23.73-8.21-35.57-12.42-3.77-1.34-6.58-1.28-9.93,2.18-18.21,18.81-36.85,37.2-55.32,55.77-5.53,5.56-10.95,11.21-16.66,17.06,40.92,17.44,186.67-13.74,210.21-44.09-10.35-1.47-21.03-2.44-31.46-4.59-20.51-4.22-41.02-8.6-61.28-13.9Z"/><path class="cls-1" d="m587.63,295.47c3.24-3.2,3.67-5.67,2.05-9.76-14.25-35.86-23.98-72.91-28.48-111.28-.67-5.74-1.3-11.49-2.14-18.96-26.03,41.53-40.35,85.38-45.99,132.12-3.19,26.44-3.26,52.98.81,80.48,2.29-1.78,3.68-2.64,4.81-3.77,22.97-22.96,45.82-46.03,68.94-68.83Z"/><path class="cls-1" d="m677.79,48.96c14.33,2.11,28.98,3.04,42.91,6.68,25.71,6.71,51.06,14.81,76.4,22.83,4.46,1.41,6.94.62,9.88-2.33,18.62-18.72,37.34-37.33,55.99-56.01,5.5-5.51,10.86-11.16,17.11-17.61-76.39-8.64-146.42,4.73-210.99,43.59.05.62.11,1.25.16,1.87,2.85.33,5.7.57,8.53.99Z"/><path class="cls-1" d="m706.43,170.28c2.65,2.66,4.25,2.1,6.67-.36,13.55-13.73,27.29-27.27,40.93-40.91,6.75-6.75,13.44-13.57,21.03-21.23-50.3-18.59-100.88-27.05-154.67-24.73,1.34,1.96,1.7,2.73,2.27,3.3,27.93,27.97,55.89,55.91,83.77,83.93Z"/><path class="cls-1" d="m681.41,201.74c2.75-2.78,1.9-4.7-.69-7.27-21.6-21.4-43.05-42.96-64.55-64.47-6.9-6.9-13.81-13.78-21.55-21.5-2.98,54.17,5.9,104.93,24.68,156.13,21.52-21.79,41.81-42.35,62.12-62.88Z"/><path class="cls-1" d="m895.84,545.43c35.25,13.23,71.6,20.96,111.09,23.91-22.48-25.13-40.59-51.3-55.18-79.95-18.86,18.9-37.13,37.21-55.92,56.04Z"/><path class="cls-1" d="m915.95,270.59c-17.97,17.87-35.89,35.79-53.91,53.62-2.8,2.77-2.37,4.65.29,7.25,11.83,11.57,23.54,23.27,35.2,35.02,6.57,6.63,12.96,13.45,19.43,20.18.66-.45,1.33-.89,1.99-1.34-6.13-39.07-5.65-78.07.87-117.19-1.75.68-2.89,1.49-3.86,2.46Z"/><path class="cls-1" d="m2.96,1031.83v-85.06h44.63c.66,15.55,6.25,27,16.79,34.36,10.53,7.36,36.19,11.04,49.69,11.04,10.53,0,19.42-2.66,26.67-7.99,7.24-5.33,10.86-11.57,10.86-18.75,0-7.66-3.54-14.09-10.61-19.29-7.08-5.21-20.02-11.13-38.81-17.79-39.73-13.89-66.7-26.18-80.89-36.84-14.19-10.67-21.29-25.05-21.29-43.14,0-21.81,9.39-38.71,28.15-50.69,18.77-11.98,40.08-17.97,63.95-17.97,27.32,0,64.35,7.75,79.33,23.24v-20.72h42.15v75.91h-45.85c-1.82-11.72-7.37-20.78-16.67-27.19-9.3-6.4-32.3-9.6-44.64-9.6-9.55,0-17.62,1.86-24.2,5.56-6.58,3.71-9.88,8.55-9.88,14.54,0,5.15,2.72,10.02,8.15,14.63,5.43,4.61,21.33,11.13,47.7,19.59,25.38,8.22,44.84,15.64,58.41,22.29,13.56,6.64,24.29,15.27,32.18,25.86,7.89,10.6,11.84,22.84,11.84,36.73,0,24.67-9.88,43.23-29.63,55.68-19.75,12.46-43.13,18.68-70.12,18.68-30.12,0-69.12-8.11-85.41-24.32v21.26H2.96Z"/><path class="cls-1" d="m381.42,778.27c43.07,0,76.95,12.44,101.66,37.33,24.7,24.88,37.06,55.21,37.06,90.98s-12.38,66.25-37.15,91.07c-24.76,24.83-58.62,37.24-101.57,37.24s-78.9-12.77-102.82-38.31c-23.93-25.54-35.89-55.54-35.89-90s12.29-65.95,36.88-90.89c24.58-24.94,58.53-37.42,101.84-37.42Zm0,45.58c-19.14,0-35.38,7.18-48.72,21.53-13.34,14.36-20.01,35.41-20.01,63.17,0,24.52,6.58,44.14,19.74,58.86,13.16,14.72,29.49,22.07,48.99,22.07s35.41-7.21,48.81-21.62c13.4-14.42,20.1-35.2,20.1-62.36,0-24.29-6.4-43.97-19.2-59.04-12.8-15.07-29.37-22.61-49.71-22.61Z"/><path class="cls-1" d="m746.52,782.22h42.17v87.93h-42.17c-11.96-31.58-32.72-47.37-62.27-47.37-24.4,0-42.86,8.31-55.36,24.94-12.5,16.63-18.75,36.55-18.75,59.76s6.61,43.94,19.83,58.95c13.22,15.02,30.06,22.52,50.52,22.52,16.75,0,31.4-5.68,43.96-17.05,12.56-11.36,21.05-27.15,25.48-47.37l49.17,23.42c-18.66,57.96-59.76,86.95-123.28,86.95-44.86,0-78.69-12.08-101.48-36.25-22.79-24.17-34.18-54.73-34.18-91.7,0-26.32,5.92-49.35,17.77-69.09,11.84-19.74,27.78-34.6,47.82-44.59,20.04-9.99,42.02-14.98,65.95-14.98,29.79,0,54.73,7.78,74.83,23.33v-19.38Z"/><path class="cls-1" d="m1019.36,782.22h42.17v87.93h-42.17c-11.96-31.58-32.72-47.37-62.27-47.37-24.4,0-42.86,8.31-55.36,24.94-12.5,16.63-18.75,36.55-18.75,59.76s6.61,43.94,19.83,58.95c13.22,15.02,30.06,22.52,50.52,22.52,16.75,0,31.4-5.68,43.96-17.05,12.56-11.36,21.05-27.15,25.48-47.37l49.17,23.42c-18.66,57.96-59.76,86.95-123.28,86.95-44.86,0-78.69-12.08-101.48-36.25-22.79-24.17-34.18-54.73-34.18-91.7,0-26.32,5.92-49.35,17.77-69.09,11.84-19.74,27.78-34.6,47.82-44.59,20.04-9.99,42.02-14.98,65.95-14.98,29.79,0,54.73,7.78,74.83,23.33v-19.38Z"/><path class="cls-1" d="m1083.87,1031.83v-42.17h29.97v-165.28h-29.97v-42.17h220v79.13h-47.73v-36.97h-77.34v57.61h62.45v42.17h-62.45v65.5h77.34v-37.33h47.73v79.5h-220Z"/><path class="cls-1" d="m1587.63,989.66v42.17h-76.04l-56.36-109.28h-28.56v67.11h31.22v42.17h-130.46v-42.17h34.28v-165.28h-34.28v-42.17h150.56c28.35,0,48.78,7.15,61.28,21.44,12.5,14.3,18.75,30.48,18.75,48.54,0,28.35-14.42,49.05-43.25,62.09l40.56,75.37h32.3Zm-160.97-106.95h22.25c27.51,0,41.27-9.81,41.27-29.43,0-9.69-3.14-16.93-9.42-21.71-6.28-4.78-14.93-7.18-25.93-7.18h-28.17v58.33Z"/><path class="cls-1" d="m1608.99,1031.83v-42.17h29.97v-165.28h-29.97v-42.17h220.01v79.13h-47.73v-36.97h-77.34v57.61h62.45v42.17h-62.45v65.5h77.34v-37.33h47.73v79.5h-220.01Z"/><path class="cls-1" d="m1846.83,1031.83v-42.17h36.79l60.73-85.81-60.73-79.46h-34.28v-42.17h130.64v42.13h-23.92l35.01,43.98,31.76-43.98h-22.57v-42.13h112.52v42.17h-34.63l-59.19,81.96,65.29,83.32h35.89v42.17h-134.23v-42.14h24.98l-37.69-49.25-35.73,49.25h25.65v42.14h-116.29Z"/></g></svg>